PathFileType	4	(X/Y/Z)	s04c0403.trc
DataRate	CameraRate	NumFrames	NumMarkers	Units	OrigDataRate	OrigDataStartFrame	OrigNumFrames
200	200	5	50	mm	200	1000	2000
Frame#	Time	racr			lacr			c7			jug			rlel			rdr			llel			ldr			s2			lic			ric			lasi			rasi			rpsi			lpsi			rgt			lgt			rth1			rth2			rth3			rth4			rlfc			rmfc			rsh1			rsh2			rsh3			rsh4			rlmal			rmmal			rcal			rtoe			rmt5			lth1			lth2			lth4			lth3			llfc			lmfc			lsh1			lsh2			lsh3			lsh4			llmal			lmmal			lcal			ltoe			lmt5			SBIKE			LBIKE			RBIKE			
		X1	Y1	Z1	X2	Y2	Z2	X3	Y3	Z3	X4	Y4	Z4	X5	Y5	Z5	X6	Y6	Z6	X7	Y7	Z7	X8	Y8	Z8	X9	Y9	Z9	X10	Y10	Z10	X11	Y11	Z11	X12	Y12	Z12	X13	Y13	Z13	X14	Y14	Z14	X15	Y15	Z15	X16	Y16	Z16	X17	Y17	Z17	X18	Y18	Z18	X19	Y19	Z19	X20	Y20	Z20	X21	Y21	Z21	X22	Y22	Z22	X23	Y23	Z23	X24	Y24	Z24	X25	Y25	Z25	X26	Y26	Z26	X27	Y27	Z27	X28	Y28	Z28	X29	Y29	Z29	X30	Y30	Z30	X31	Y31	Z31	X32	Y32	Z32	X33	Y33	Z33	X34	Y34	Z34	X35	Y35	Z35	X36	Y36	Z36	X37	Y37	Z37	X38	Y38	Z38	X39	Y39	Z39	X40	Y40	Z40	X41	Y41	Z41	X42	Y42	Z42	X43	Y43	Z43	X44	Y44	Z44	X45	Y45	Z45	X46	Y46	Z46	X47	Y47	Z47	X48	Y48	Z48	X49	Y49	Z49	X50	Y50	Z50	
1000	5.0000	849.448531	1253.081489	-108.829608	825.203010	1283.031894	-438.072479	876.193508	1357.830185	-276.737921	790.009392	1222.099470	-286.065481	574.215008	1155.161928	61.263172	697.196292	946.517003	-73.418291	579.097959	1163.773431	-565.770578	687.004082	931.119240	-495.521065	277.009122	1317.142198	-344.560502	443.063586	1234.574495	-455.037244	385.466005	1325.075557	-154.407784	456.455560	1187.143706	-401.782684	421.832136	1260.877145	-181.713808	308.016494	1362.040835	-306.100550	327.150836	1341.150357	-377.677358	334.901465	1286.923462	-133.373781	375.500998	1156.022273	-476.399918	422.504228	1148.112000	-102.990440	488.555018	1089.602867	-105.948845	518.273676	1009.988509	-103.966411	515.952224	1109.128721	-123.210418	585.984062	876.447743	-120.876989	571.874219	858.832547	-234.385894	502.499403	781.655588	-101.603629	464.243540	699.799233	-116.697012	391.350911	655.121995	-126.403922	490.937421	682.161067	-138.037901	301.451993	534.142484	-135.933885	327.131324	535.042147	-220.023305	227.529426	527.443108	-175.884208	502.665932	411.174612	-161.177846	431.767604	411.623096	-105.627247	386.841452	1070.909398	-482.004160	419.581277	991.087513	-473.565531	449.108303	996.076174	-453.657723	410.325633	902.795385	-480.877324	392.539710	738.299649	-470.173354	395.656301	704.126275	-358.130764	318.075990	628.359734	-491.942790	282.107527	552.105225	-470.649278	211.372433	497.989191	-471.906220	304.104087	538.791979	-440.705153	115.508243	377.413199	-468.631145	0.000000	0.000000	-0.000000	50.657184	420.512150	-429.333056	204.907415	156.126787	-401.669567	140.890952	192.941670	-469.619486	-183.849485	931.004202	-284.803946	-17.545181	79.875475	-485.023157	-17.493061	79.496341	-84.447737	
1001	5.0050	849.062220	1251.826862	-109.374296	824.193570	1284.183201	-438.085873	876.106155	1357.706843	-276.249808	789.039078	1222.589621	-286.572427	573.686114	1155.286543	60.904083	696.986436	946.772678	-73.436291	578.597249	1163.868136	-565.664799	686.706972	931.137288	-494.994846	276.617745	1318.511094	-341.806098	441.966033	1236.941191	-453.982206	385.713387	1323.800407	-152.109684	455.704027	1189.088578	-401.162148	421.677995	1260.039518	-180.004335	307.529038	1363.130507	-302.795294	326.618238	1343.107744	-374.825346	334.495858	1285.214012	-131.377908	376.236884	1158.898907	-475.725801	420.788752	1144.726264	-102.489192	486.191979	1085.628433	-105.953929	515.014670	1005.738414	-104.814044	513.856196	1105.083833	-123.073781	581.497027	872.225761	-122.276343	566.972470	854.576836	-235.855047	499.762862	776.011127	-102.711883	463.498898	693.119585	-117.306702	391.684918	646.573102	-126.797689	490.579878	676.039405	-138.790454	304.125828	523.428467	-135.698940	329.409697	525.051185	-220.081054	230.117752	515.842995	-175.581305	507.196812	404.091227	-161.375421	436.382875	403.425505	-105.630937	389.416651	1073.360917	-480.905651	424.010090	994.360414	-472.862597	453.311195	1000.184497	-454.293766	416.808456	905.888095	-480.524249	400.573616	740.849063	-470.179658	403.755833	706.833417	-358.350702	324.309236	632.339631	-491.685138	286.638692	557.005430	-470.327576	214.605296	504.484087	-471.397069	308.095951	543.185777	-440.088165	116.273891	385.414944	-467.398886	0.000000	0.000000	-0.000000	51.781763	430.374474	-428.759238	199.193336	161.596993	-401.664661	136.422382	200.713773	-469.476865	-183.677193	931.089414	-284.562033	-17.535277	80.313276	-485.252602	-17.458274	79.486221	-84.426758	
1002	5.0100	848.745523	1250.840635	-109.662024	825.912254	1285.697849	-440.402105	875.681537	1357.963125	-275.610738	790.252226	1221.896556	-287.355656	573.062518	1155.403642	60.477340	696.767264	947.265213	-73.223002	578.306212	1163.981591	-565.643141	686.405751	931.198601	-494.527293	276.002905	1319.399951	-339.342233	440.882055	1239.199509	-452.979314	385.977389	1322.199185	-149.857994	454.962983	1190.845216	-400.675810	421.601342	1258.788928	-178.902853	306.892893	1363.879477	-299.597656	325.851779	1344.704089	-371.916612	334.065878	1283.269925	-129.383295	377.057608	1161.839444	-475.235022	419.095331	1141.315321	-101.732995	484.203098	1081.589012	-106.293179	511.942260	1001.395865	-105.705265	511.904432	1100.909228	-122.611989	577.430806	868.252871	-123.840583	562.169173	850.275936	-237.334898	497.125011	770.169478	-103.792058	462.508563	686.500256	-118.013573	391.754024	638.393622	-127.117805	490.006652	669.943502	-139.574159	306.499058	513.347875	-135.468334	331.602988	515.248618	-219.894370	232.503820	504.593054	-175.029251	511.293315	396.585695	-161.613021	440.613015	395.132213	-105.737369	391.823852	1076.029291	-479.927965	428.018605	997.577282	-472.352082	457.807332	1003.723505	-452.911626	422.507502	909.129899	-480.279592	407.744895	743.449512	-470.149443	411.617320	709.449582	-358.447955	330.321316	636.062223	-491.421534	290.994363	561.562920	-469.684062	217.938937	510.562255	-470.957934	312.098384	547.399768	-439.318902	116.979553	393.708692	-466.789582	0.000000	0.000000	-0.000000	53.691099	440.164146	-428.142257	193.849468	167.222383	-401.640508	132.304856	208.386300	-469.239132	-183.530610	931.164254	-284.275030	-17.476077	80.391786	-485.222217	-17.436874	79.506487	-84.414329	
1003	5.0150	848.243593	1250.394255	-109.632850	823.565694	1286.742741	-439.948160	875.197640	1358.202931	-274.944547	788.437858	1222.988903	-287.047117	572.288644	1155.462184	59.999539	696.554252	947.472309	-73.155654	578.161085	1164.155153	-565.725277	686.154390	931.282560	-494.073107	275.346341	1319.949823	-336.761749	439.802158	1241.409344	-452.040644	386.242711	1320.483916	-147.581908	454.402323	1192.639452	-400.234260	421.562098	1257.467289	-177.855332	306.212288	1364.219672	-296.441907	324.961057	1346.116664	-368.976079	333.689761	1280.990740	-127.550780	377.895297	1164.694763	-474.575281	417.709288	1137.857038	-101.127171	481.631193	1077.455215	-105.739321	509.044038	997.000790	-106.634906	509.981124	1096.763221	-122.228313	573.655871	864.216763	-125.461837	557.955229	846.039420	-239.101432	494.420319	764.402095	-104.891185	461.310516	680.089230	-118.721175	391.431340	630.592209	-127.445850	488.972371	663.945770	-140.253146	308.710257	503.665946	-135.245770	334.319553	505.232842	-219.677452	234.797117	493.716822	-174.437611	514.922209	388.708426	-161.618270	444.359287	386.472827	-105.815086	394.021534	1078.784688	-478.942353	431.554488	1000.853750	-472.080934	461.601326	1007.418112	-453.231550	427.438961	912.235372	-479.912645	414.087575	746.201382	-470.052635	419.069367	711.887462	-358.402238	336.051766	639.627585	-491.082202	295.218807	565.998475	-469.222908	221.229632	516.383257	-470.625701	315.884949	551.471753	-438.556992	117.676053	401.909154	-466.152961	0.000000	0.000000	-0.000000	55.558471	449.785439	-427.499468	188.982195	173.375936	-401.691661	128.523152	216.217262	-469.118484	-183.411726	931.218856	-284.057733	-17.438954	80.508677	-485.253988	-17.394373	79.495143	-84.402509	
1004	5.0200	848.002860	1249.991123	-109.565433	822.697141	1287.951001	-440.063841	874.590538	1358.631070	-274.288920	787.893557	1223.405902	-286.966118	571.451828	1155.519422	59.542532	696.348302	947.645307	-73.131566	578.144535	1164.306039	-565.930383	686.283758	931.496612	-493.768927	274.607226	1320.129116	-334.179334	442.165108	1244.049501	-453.943965	386.569550	1318.618034	-145.384697	459.021544	1195.245687	-402.825201	421.768960	1255.929795	-176.515271	305.581966	1364.215796	-293.461765	323.927715	1347.160014	-365.916485	333.549521	1278.640885	-125.806983	378.553813	1167.502475	-474.094343	416.451146	1134.196909	-100.454472	479.590913	1073.297004	-105.820375	506.246586	992.522979	-107.611747	508.295612	1092.410340	-122.119192	569.887868	859.792631	-127.183290	553.719427	841.768462	-240.846981	491.700865	758.654437	-105.984975	459.903332	673.794942	-119.412542	390.890765	623.047318	-127.752102	487.918693	657.979787	-140.926836	310.818920	494.047466	-134.971521	335.613590	495.888834	-219.461606	236.945165	483.009168	-173.772250	518.250199	380.318258	-162.096751	447.748231	377.563559	-105.944514	396.029105	1081.470899	-478.070985	434.592001	1003.986337	-472.039318	464.987742	1010.939516	-454.037813	431.602476	915.381590	-479.619186	419.443159	749.051706	-469.812520	426.071009	714.375107	-358.082195	341.410267	643.208017	-490.676236	299.217231	570.298275	-468.749228	224.346469	522.107935	-470.151218	319.536103	555.704338	-437.990550	118.098654	410.223317	-465.583989	0.000000	0.000000	-0.000000	57.097305	459.408677	-426.913112	184.582335	180.127464	-401.650160	125.145721	224.439196	-468.928780	-183.309794	931.333993	-283.814437	-17.414384	80.584295	-485.235874	-17.373174	79.513673	-84.373608	
